# xmcd
#
# Track frame offsets:
#	150
#	14087
#	28707
#	39655
#	53550
#	68417
#	80242
#	97097
#	108605
#	124255
#	135460
#	149435
#	164192
#	177052
#
# Disc length: 2589 seconds
#
# Revision: 0
# Processed by: cddbd v1.5.2PL0 Copyright (c) Steve Scherf et al.
# Submitted via: EasyCDDAExtractor 8.2.3.1
#
DISCID=cc0a1b0e
DTITLE=Bill Arwood - I Want More
DYEAR=1992
DGENRE=Country
TTITLE0=Swinging Little Honky Tonk
TTITLE1=We Forgot What We Told Each Other
TTITLE2=Loving You
TTITLE3=When Jack Takes You Out On The Town
TTITLE4=Makin' It Easy
TTITLE5=On The Edge Of Leaving
TTITLE6=Midnight Attractions
TTITLE7=Walk On The Wild Side
TTITLE8=I Want More
TTITLE9=Troubled Winds
TTITLE10=Rough Around The Edges
TTITLE11=Wall Of Love
TTITLE12=Yankiee In Dixie
TTITLE13=Tribute To George Jones
EXTD=
EXTT0=
EXTT1=
EXTT2=
EXTT3=
EXTT4=
EXTT5=
EXTT6=
EXTT7=
EXTT8=
EXTT9=
EXTT10=
EXTT11=
EXTT12=
EXTT13=
PLAYORDER=
